<?xml version="1.0" encoding="utf-8"?>
<!-- Generator: Adobe Illustrator 22.1.0, SVG Export Plug-In . SVG Version: 6.00 Build 0)  -->
<svg version="1.1" xmlns="http://www.w3.org/2000/svg" xmlns:xlink="http://www.w3.org/1999/xlink" x="0px" y="0px"
	 viewBox="0 0 500 500" style="enable-background:new 0 0 500 500;" xml:space="preserve">
<g id="Layer_2">
	<polygon style="opacity:0.29;fill:#16FF18;stroke:#16FF18;stroke-miterlimit:10;" points="154.2,193.8 137.2,163.6 154.2,141.6 
		167.4,141.6 184.4,154.2 197.6,151.5 222.9,141.6 232.2,113.4 249.5,107.5 267.4,113.4 271.2,137.7 285.5,146 301.4,150.7 
		306.9,155.9 335,138.8 363,160.3 343.7,188.2 357.5,222.7 377.8,232.8 389.9,232.8 389.9,268.5 358.6,275.1 344.3,312.8 363,342.7 
		337.7,364.1 308.6,347.1 273.4,360.3 270.1,394.3 228.9,394.3 225.1,360.8 187.2,345.4 159.1,365.2 133.9,338.8 156.4,312.8 
		138.3,272.9 105.8,270.2 105.8,233.4 137.7,225.7 	"/>
</g>
<g id="Layer_1">
	<g>
		<g>
			<g>
				<path style="fill:#E8C923;stroke:#E8C923;stroke-miterlimit:10;" d="M273.4,400h-47.9l-5.8-35c-10.5-2.7-20.6-6.9-30.1-12.5
					l-28.9,20.7l-33.9-33.9l20.7-28.9c-5.6-9.4-9.8-19.5-12.5-30.1l-35-5.8v-47.9l35-5.8c2.7-10.5,6.9-20.6,12.5-30.1l-20.7-28.9
					l33.9-33.9l28.9,20.7c9.4-5.6,19.5-9.8,30.1-12.5l5.8-35h47.9l5.8,35c10.5,2.7,20.6,6.9,30.1,12.5l28.9-20.7l33.9,33.9
					l-20.7,28.9c5.6,9.5,9.8,19.5,12.5,30.1l35,5.8v47.9l-35,5.8c-2.7,10.5-6.9,20.6-12.5,30.1l20.7,28.9l-33.9,33.9l-28.9-20.7
					c-9.5,5.6-19.5,9.8-30.1,12.5L273.4,400z M236,387.5h26.8l5.5-32.8l4.1-0.9c12-2.7,23.3-7.4,33.8-14l3.5-2.3l27.1,19.4l19-19
					l-19.4-27.1l2.3-3.5c6.7-10.5,11.4-21.8,14-33.8l0.9-4.1l32.8-5.5V237l-32.8-5.5l-0.9-4.1c-2.6-12-7.4-23.3-14-33.8l-2.3-3.5
					l19.4-27.1l-19-19l-27.1,19.4l-3.5-2.3c-10.5-6.7-21.8-11.4-33.8-14l-4.1-0.9l-5.5-32.8H236l-5.5,32.8l-4.1,0.9
					c-12,2.6-23.3,7.4-33.8,14l-3.5,2.3L162,144l-19,19l19.4,27.1l-2.3,3.5c-6.7,10.5-11.4,21.8-14,33.8l-0.9,4.1l-32.8,5.5v26.8
					l32.8,5.5l0.9,4.1c2.6,12,7.4,23.3,14,33.8l2.3,3.5L143,337.9l19,19l27.1-19.4l3.5,2.3c10.5,6.7,21.8,11.4,33.8,14l4.1,0.9
					L236,387.5z"/>
			</g>
			<g>
				<g>
					<path style="fill:#E8C923;stroke:#E8C923;stroke-miterlimit:10;" d="M249.5,325.2c-41.2,0-74.8-33.5-74.8-74.8
						s33.5-74.8,74.8-74.8c41.2,0,74.8,33.5,74.8,74.8S290.7,325.2,249.5,325.2z M249.5,188.2c-34.4,0-62.3,27.9-62.3,62.3
						c0,34.4,28,62.3,62.3,62.3c34.4,0,62.3-28,62.3-62.3C311.8,216.1,283.8,188.2,249.5,188.2z"/>
				</g>
				<g>
					<polygon style="fill:#E8C923;stroke:#E8C923;stroke-miterlimit:10;" points="238.6,282.6 209.2,253.3 218,244.5 238.6,265 
						280.9,222.7 289.7,231.5 					"/>
				</g>
			</g>
		</g>
	</g>
</g>
</svg>
