<?xml version="1.0" encoding="utf-8"?>
<!-- Generator: Adobe Illustrator 22.1.0, SVG Export Plug-In . SVG Version: 6.00 Build 0)  -->
<svg version="1.1" id="Layer_1" xmlns="http://www.w3.org/2000/svg" xmlns:xlink="http://www.w3.org/1999/xlink" x="0px" y="0px"
	 viewBox="0 0 500 500" style="enable-background:new 0 0 500 500;" xml:space="preserve">
<g>
	<g>
		
			<path style="opacity:0.57;fill:#E8C923;stroke:#000000;stroke-width:1.24;stroke-linecap:round;stroke-linejoin:round;stroke-miterlimit:10;" d="
			M307.3,262.4V228c0-13.8-11.2-25-25-25c-3.6,0-7,0.8-10.1,2.2c-8.4-6.6-19-10.5-30.6-10.5c-27.6,0-49.9,22.4-49.9,49.9v17.8
			c-7.5,2.7-13,9.8-13,18.2c0,16.6,8.4,30,18.9,30.4c9.6,29.6,29.2,50,51.9,50c22.7,0,42.2-20.4,51.9-50
			c10.5-0.5,18.9-13.9,18.9-30.4C320.2,272.2,314.8,265.1,307.3,262.4L307.3,262.4z"/>
		
			<path style="fill:#84773E;stroke:#000000;stroke-width:1.24;stroke-linecap:round;stroke-linejoin:round;stroke-miterlimit:10;" d="
			M307.3,262.4c-13.8,0-25-11.2-25-25h0c-15.4,15.4-36.7,25-60.3,25h-30.3H222c23.5,0,44.9-9.5,60.3-25h0
			C282.3,251.3,293.5,262.4,307.3,262.4z"/>
		
			<path style="opacity:0.5;fill:#E8C923;stroke:#000000;stroke-width:1.24;stroke-linecap:round;stroke-linejoin:round;stroke-miterlimit:10;" d="
			M176.8,399.3l36.5-15.1c3.1-1.3,5.8-3.1,8.1-5.4c4.5-4.5,7.3-10.8,7.3-17.7v-6.1c6.5,3.9,13.5,6.1,20.8,6.1s14.3-2.2,20.8-6.1v6.1
			c0,6.9,2.8,13.1,7.3,17.7c2.3,2.3,5,4.1,8.1,5.4l36.5,15.1L176.8,399.3z"/>
		
			<path style="fill:#D40CE8;stroke:#000000;stroke-width:1.24;stroke-linecap:round;stroke-linejoin:round;stroke-miterlimit:10;" d="
			M277.4,129.6c0,15.4-12.5,27.9-27.9,27.9c-15.4,0-27.9-12.5-27.9-27.9c0-15.4,12.5-27.9,27.9-27.9
			C264.9,101.7,277.4,114.2,277.4,129.6z"/>
		
			<path style="fill:#FF4F00;stroke:#000000;stroke-width:1.24;stroke-linecap:round;stroke-linejoin:round;stroke-miterlimit:10;" d="
			M156.5,341.2c0,15.4-12.5,27.9-27.9,27.9c-15.4,0-27.9-12.5-27.9-27.9c0-15.4,12.5-27.9,27.9-27.9
			C144,313.3,156.5,325.8,156.5,341.2"/>
		
			<path style="fill:#16FF18;stroke:#000000;stroke-width:1.24;stroke-linecap:round;stroke-linejoin:round;stroke-miterlimit:10;" d="
			M398.3,197c0,15.4-12.5,27.9-27.9,27.9s-27.9-12.5-27.9-27.9s12.5-27.9,27.9-27.9S398.3,181.6,398.3,197"/>
		
			<path style="fill:#FF4F00;stroke:#000000;stroke-width:1.24;stroke-linecap:round;stroke-linejoin:round;stroke-miterlimit:10;" d="
			M356.5,365.3c-13.3-7.7-17.9-24.8-10.2-38.1c7.7-13.4,24.8-17.9,38.1-10.2c13.3,7.7,17.9,24.8,10.2,38.1
			C386.9,368.4,369.8,373,356.5,365.3L356.5,365.3z"/>
		
			<path style="fill:#16FF18;stroke:#000000;stroke-width:1.24;stroke-linecap:round;stroke-linejoin:round;stroke-miterlimit:10;" d="
			M114.7,221.2c-13.3-7.7-17.9-24.8-10.2-38.1c7.7-13.3,24.8-17.9,38.1-10.2c13.3,7.7,17.9,24.8,10.2,38.1
			C145.1,224.3,128,228.9,114.7,221.2z"/>
		<path style="fill:none;stroke:#000000;stroke-width:1.24;stroke-linecap:round;stroke-linejoin:round;stroke-miterlimit:10;" d="
			M152.8,327.2l35.5-20.5L152.8,327.2z"/>
		<path style="fill:none;stroke:#000000;stroke-width:1.24;stroke-linecap:round;stroke-linejoin:round;stroke-miterlimit:10;" d="
			M346.3,211l-39,22.5L346.3,211z"/>
		<path style="fill:none;stroke:#000000;stroke-width:1.24;stroke-linecap:round;stroke-linejoin:round;stroke-miterlimit:10;" d="
			M152.8,211l40.1,23.2L152.8,211z"/>
		<path style="fill:none;stroke:#000000;stroke-width:1.24;stroke-linecap:round;stroke-linejoin:round;stroke-miterlimit:10;" d="
			M346.3,327.2l-35.5-20.5L346.3,327.2z"/>
		<path style="fill:none;stroke:#000000;stroke-width:1.24;stroke-linecap:round;stroke-linejoin:round;stroke-miterlimit:10;" d="
			M249.5,195.4v-37.9V195.4z"/>
	</g>
</g>
</svg>
