<?xml version="1.0" encoding="utf-8"?>
<!-- Generator: Adobe Illustrator 22.1.0, SVG Export Plug-In . SVG Version: 6.00 Build 0)  -->
<svg version="1.1" id="Layer_1" xmlns="http://www.w3.org/2000/svg" xmlns:xlink="http://www.w3.org/1999/xlink" x="0px" y="0px"
	 viewBox="0 0 500 500" style="enable-background:new 0 0 500 500;" xml:space="preserve">
<g>
	<g>
		<path style="opacity:0.62;fill:#D40CE8;" d="M99.8,250.2l149.4,149.4l149.4-149.4L249.2,100.8L99.8,250.2z M249.2,383.1
			L116.3,250.2l132.9-132.9l132.9,132.9L249.2,383.1z"/>
		<path style="fill:#E8C923;" d="M197.3,225.3c0,14.2,12.3,40.7,24.3,63.3v0.2h0.1h13.3h0.8h11.9h2.7h11.9h0.8h13.3h0.1v-0.2
			c12-22.6,24.3-49.1,24.3-63.3c0-28.6-23.3-51.9-51.9-51.9C220.6,173.5,197.3,196.7,197.3,225.3z M252.9,277.2h-7.5l-8.7-42.9
			c3.9,1.5,8.1,2.2,12.5,2.2c4.3,0,8.5-0.8,12.5-2.2L252.9,277.2z M289.4,225.3c0,10.4-9.3,31.5-19.9,51.9h-4.7l11-54l-9.8-5.3
			c-4.5,4.5-10.5,6.9-16.8,6.9c-6.3,0-12.3-2.5-16.8-6.9l-9.8,5.3l11,54h-4.7c-10.6-20.4-19.9-41.5-19.9-51.9
			c0-22.2,18-40.2,40.2-40.2S289.4,203.2,289.4,225.3z"/>
		<rect x="225.8" y="299.3" style="opacity:0.66;fill:#E8C923;" width="46.8" height="11.7"/>
		<rect x="235.4" y="322.4" style="opacity:0.69;fill:#E8C923;" width="27.6" height="11.7"/>
	</g>
</g>
</svg>
