<?xml version="1.0" encoding="utf-8"?>
<!-- Generator: Adobe Illustrator 22.1.0, SVG Export Plug-In . SVG Version: 6.00 Build 0)  -->
<svg version="1.1" id="Layer_1" xmlns="http://www.w3.org/2000/svg" xmlns:xlink="http://www.w3.org/1999/xlink" x="0px" y="0px"
	 viewBox="0 0 500 500" style="enable-background:new 0 0 500 500;" xml:space="preserve">
<g>
	<title>Artboard 22</title>
	<path style="opacity:0.72;fill:#E8C923;" d="M207.9,301.7l-44.7-44.9c-5.9-5.9-15.5-5.9-21.4,0.1c-0.3,0.3-0.6,0.7-0.9,1
		c-4.9,6.3-4.3,15.2,1.5,20.7l21.6,21.6c2,1.9,2,5.1,0,7.1c-0.2,0.2-0.4,0.4-0.6,0.5c-2.1,1.5-5,1.2-6.7-0.7l-24.8-24.8
		c-3.6-3.6-5.5-8.5-5.2-13.6l3.8-57.6c0.5-8.6-6-16.1-14.7-16.6c-8.6-0.5-16.1,6-16.6,14.7l-5.6,72.7c-0.7,10.7,3.2,21.3,10.8,28.9
		l52.5,52.5v31.8h73.3l-0.3-40.5C229.7,334.6,221.9,315.6,207.9,301.7z"/>
	<path style="opacity:0.49;fill:#16FF18;" d="M320.9,200.6C320.9,200.6,320.9,200.6,320.9,200.6l-19.3-19.3c-1.8-1.8-1.8-4.8,0-6.6
		l0,0l0.7-0.7c0.8-0.7,1.8-1.2,2.8-1.3c11.6-1.6,19.7-12.3,18.1-23.9c-0.4-3-1.4-5.8-3-8.3c-6.1-10-19.2-13.2-29.2-7.1
		c-1.5,0.9-2.9,2-4.1,3.3c-3.3,3.2-5.4,7.4-6.1,12c-0.1,0.8-0.4,1.6-0.9,2.3v78h35.1l5.8-5.8C327.1,216.9,327.2,206.8,320.9,200.6z"
		/>
	<path style="opacity:0.59;fill:#D40CE8;" d="M270.1,149.9l-16.9-17c-6.2-6.2-16.3-6.2-22.6,0l-19.2,19.2c-1.8,1.8-4.8,1.8-6.6,0
		l0,0l-0.7-0.7c-0.7-0.8-1.2-1.8-1.3-2.8c-1.6-11.6-12.3-19.7-23.9-18.1c-3,0.4-5.8,1.4-8.3,3c-10,6.1-13.2,19.1-7.1,29.1
		c0.9,1.5,2,2.9,3.3,4.2c3.2,3.3,7.4,5.4,12,6.1c1.1,0.1,2,0.6,2.8,1.3l0.7,0.7c1.8,1.8,1.8,4.8,0,6.6l-7.6,7.6
		c5.2,5.2,10.3,10.3,15.5,15.5c4.6,4.6-2.5,11.6-7.1,7.1l-15.5-15.5l-4.6,4.6c-6.2,6.2-6.2,16.3,0,22.5c0,0,0,0,0,0l19.3,19.3
		c1.8,1.8,4.8,1.8,6.6,0l0.7-0.7c0.7-0.8,1.2-1.8,1.3-2.8c0.7-4.5,2.8-8.8,6.1-12c8.2-8.4,21.6-8.5,30-0.4c0.7,0.7,1.3,1.4,1.9,2.2
		h41.2V149.9z"/>
	<path style="opacity:0.65;fill:#FF4F00;" d="M233.1,238.9c0.7,4.7-0.2,9.6-2.8,13.9c-3.3,5.5-9,9.2-15.3,10c-1.1,0.1-2,0.6-2.8,1.3
		l-0.7,0.7c-1.8,1.8-1.8,4.8,0,6.6l0,0l19.3,19.3c6.2,6.2,16.3,6.2,22.5,0c0,0,0,0,0,0l19.3-19.3l29.2-29.2l3.5-3.5H233.1z"/>
	<path style="opacity:0.72;fill:#E8C923;" d="M390.4,281.7l-5.6-72.7c-0.5-8.6-8-15.2-16.6-14.7c-8.6,0.5-15.2,8-14.7,16.6l3.8,57.6
		c0.3,5.1-1.6,10-5.2,13.6L327.4,307c-1.7,1.9-4.6,2.2-6.7,0.7c-0.2-0.2-0.4-0.3-0.6-0.5c-1.9-2-1.9-5.1,0-7.1l21.6-21.6
		c5.7-5.5,6.3-14.5,1.5-20.7c-0.3-0.4-0.6-0.7-0.9-1c-5.9-5.9-15.5-6-21.4-0.1L276,301.7c-14,14-21.9,32.9-21.9,52.7l-0.3,40.5H327
		v-31.8l52.5-52.5C387.2,303,391.1,292.5,390.4,281.7z"/>
</g>
</svg>
