<?xml version="1.0" encoding="utf-8"?>
<!-- Generator: Adobe Illustrator 22.1.0, SVG Export Plug-In . SVG Version: 6.00 Build 0)  -->
<svg version="1.1" id="Layer_1" xmlns="http://www.w3.org/2000/svg" xmlns:xlink="http://www.w3.org/1999/xlink" x="0px" y="0px"
	 viewBox="0 0 250 250" style="enable-background:new 0 0 250 250;" xml:space="preserve">
<g>
	<path d="M237,79.9c0-6.2-2.2-11.7-6.1-15.5c-3.9-3.8-9.2-5.7-15.4-5.7c-0.1,0-0.1,0-0.2,0c-48,0.3-70.3,29.9-78.9,46.3
		c-0.5-0.5-1-1-1.6-1.4c2.6-1.9,4.2-4.8,4.2-8.2c0-3-1.4-5.7-3.5-7.6c6.7-20,18.1-52.4,20.6-54.4c1.2-0.9,2.6-1.5,3.9-1.8
		c0.7,0.3,1.7,0.4,2.1,0.4c0.5,0,1.1,0,1.7-0.1c1.7-0.2,4.4-0.9,4.2-2.6c-0.2-1.3-1.9-1.8-4.8-1.4c-1.2,0.2-3.1,0.6-3.9,1.5
		c-1.5,0.4-3.2,1.1-4.7,2.2c-3.6,2.7-17.7,44.4-21.2,54.9c-1.5-0.8-3.1-1.2-4.9-1.2c-1.8,0-3.5,0.5-4.9,1.3
		c-3.5-10.5-17.6-52.3-21.2-54.9c-1.6-1.1-3.2-1.8-4.7-2.2c-0.8-0.9-2.6-1.3-3.9-1.5c-2.8-0.4-4.6,0.1-4.8,1.4
		c-0.2,1.7,2.5,2.4,4.2,2.6c0.6,0.1,1.2,0.1,1.7,0.1l0,0c0.4,0,1.4,0,2.1-0.4c1.2,0.4,2.6,0.9,3.8,1.8c2.5,2.1,14,34.4,20.6,54.5
		c-2.1,1.9-3.5,4.6-3.5,7.6c0,3.3,1.7,6.3,4.2,8.2c-0.6,0.4-1.1,0.9-1.6,1.4c-8.7-16.5-30.9-46-78.9-46.3c-6.3,0-11.7,1.9-15.6,5.7
		c-4,3.8-6.1,9.4-6.1,15.5c0,5.1,2,10.4,5.4,14.3l0,0l0.3,0.3c0,0.1,0.1,0.1,0.1,0.2l0,0l0.1,0.1c3.3,3.1,5.1,7.4,5.1,11.9
		c0,1.7-0.5,4-1,5.6c-0.7,2-0.9,6.1-1,6.7c0,12,8.8,22,20.5,24.2c-4.4,4-6.9,9.8-6.9,16.7c0,3,0.6,6,1.7,8.5l0.3,0.8l0,0
		c4.4,13.5,14.8,23,22.5,28.4c4.8,4.5,11.1,6.9,17.7,6.9c3.5,0,6.9-0.7,10.1-2c0.3-0.1,0.6-0.3,0.9-0.4c0.4-0.2,0.8-0.4,1.2-0.6
		c0.1-0.1,0.2-0.1,0.3-0.2c1-0.5,1.9-1.1,2.8-1.8l0-0.1c6.8-4.9,13.4-14,20.2-27.5c3.2,16.8,6.4,16.9,8.2,16.9
		c3.9,0,6.5-8.2,8.2-17.1c6.8,13.7,13.6,22.8,20.4,27.8l0,0.1c0.9,0.7,1.9,1.2,2.9,1.8c0.1,0,0.2,0.1,0.3,0.1
		c0.4,0.2,0.8,0.4,1.2,0.6c0.3,0.1,0.6,0.3,0.8,0.4c3.2,1.3,6.6,2,10.1,2c6.6,0,12.9-2.5,17.7-6.9c7.7-5.4,18.1-14.9,22.5-28.4l0,0
		l0.2-0.6c1.2-2.8,1.8-5.7,1.8-8.7c0-6.9-2.6-12.7-6.9-16.7c11.6-2.2,20.5-12.2,20.5-24.4c0-0.5-0.3-4.6-0.9-6.6
		c-0.5-1.6-1-3.9-1-5.6c0-4.5,1.8-8.7,5.2-12l0,0c0,0,0,0,0,0c0,0,0,0,0,0l0.4-0.5l0,0C235,90.3,237,85,237,79.9z M199.8,75.1
		c1.3,0,2.5,0.2,3.8,0.6c-14.3,19.6-31.2,29.6-43.1,34.4c-8.4,3.4-15.5,4.9-19.7,5.6C168.1,78.1,198.2,75.2,199.8,75.1z
		 M193.2,124.7L193.2,124.7l-0.3-0.1c-4.1-0.6-35.8-5.4-51.1-4.3c6-0.9,17-3.4,29.4-9.9c16.6,0.8,35.4,2.7,38.6,4.6
		c-0.6,1.6-1.1,2.5-1.1,2.7c-2,4.6-6.7,7.6-11.8,7.6C195.6,125.2,194.3,125,193.2,124.7z M188.1,139.2c1.8,1.9,24.8,26.3,9.3,45.6
		c-0.6,0.7-1.3,1.3-1.9,2c-0.1,0-0.1,0.1-0.2,0.1c-1.3-4.1-3.8-9-5.2-11.6c3.6-2.9,6-7.3,6-12.3c0-8.8-7.3-15.9-16.2-15.9
		c-2.6,0-5,0.6-7.2,1.7c-8.6-9.1-26.9-11.6-33.3-12.3v-5.6C171.2,128.3,186.1,137.8,188.1,139.2z M113.1,175.4
		c-1.8,1.7-13,11.6-27.4,14.5c12.6-8.2,25.8-24.3,32.4-33c0.2,2.2,0.5,4.7,0.8,6.9C116.9,168.1,115,172,113.1,175.4z M68.9,139.1
		c1-0.7,15.6-11,48.8-8.3v5.7c-6.5,0.6-24.7,3.2-33.3,12.3c-2.2-1.1-4.6-1.7-7.2-1.7c-9,0-16.2,7.1-16.2,15.9c0,5,2.3,9.4,6,12.3
		c-1.4,2.6-3.9,7.5-5.2,11.6c-0.1,0-0.2-0.1-0.2-0.1c-0.6-0.6-1.3-1.3-1.9-2C44.1,165.5,67.1,141,68.9,139.1z M64.1,124.6l-0.3,0.1
		l0,0c-1.2,0.3-2.4,0.5-3.7,0.5c-5.1,0-9.8-3-11.8-7.6c-0.1-0.2-0.5-1.1-1.1-2.7c3.2-1.9,22-3.8,38.6-4.6c12.5,6.6,23.4,9,29.4,9.9
		C100,119.3,68.2,124,64.1,124.6z M44.6,85.1c0-0.2,0.1-0.4,0.2-0.7c0.2-0.6,0.4-1.2,0.6-1.8c0.3-0.7,0.7-1.3,1.1-2
		c0.7-1.1,1.6-2,2.6-2.7c4,5.6,8.2,10.5,12.5,14.7c-7.9-0.9-15.4-2.3-18-3.7C44,87.6,44.3,86.3,44.6,85.1L44.6,85.1z M57.2,75.1
		c1.6,0.1,31.7,3,59.1,40.6c-4.2-0.6-11.3-2.1-19.7-5.6c-11.9-4.9-28.9-14.8-43.1-34.4C54.7,75.3,55.9,75.1,57.2,75.1z M71.9,190.3
		c-1.9-0.3-3.8-0.8-5.7-1.5c1-3.5,3.3-8.2,4.9-11.2c1.9,0.8,3.9,1.2,6.1,1.2c8.9,0,16.2-7.1,16.2-15.9c0-4.5-2-8.6-5.1-11.5
		c7.4-7.2,23.1-9.6,29.3-10.2v8.3C108.9,161.8,85,190.8,71.9,190.3z M77.8,174c-1.1-10.2,2.8-17.8,4.8-20.9c3.6,1.9,6,5.5,6,9.8
		C88.6,168.9,83.8,173.7,77.8,174z M72.9,173.3c-4.2-1.7-7.1-5.7-7.1-10.3c0-6.2,5.1-11.2,11.4-11.2c0.2,0,0.4,0,0.6,0.1
		C75.5,155.8,72.2,163.4,72.9,173.3z M122.5,140.3c1.7-0.8,6.3-2.6,11.9,0v2c-4.9-1.7-9.1-1-11.9,0V140.3z M122.5,135.2v-9
		c1.7-0.8,6.3-2.6,11.9,0v0.6v8.5C129.5,133.5,125.3,134.2,122.5,135.2z M134.4,116.3v4.8c-4.9-1.7-9.1-1-11.9,0v-8.9
		c0-3.2,2.7-5.8,6-5.8c3.3,0,6,2.6,6,5.8V116.3z M67.5,97.9c3.7,3.1,7.4,5.8,11,8.1c-12.1,0.7-26.7,2.1-32.7,4.6
		c-1.4-4.4-2.7-10.5-2.5-16.9C50,96.3,62.2,97.5,67.5,97.9z M47.4,113.6c0.1,0.5,0,0.9-0.2,1.2c-0.1-0.3-0.3-0.7-0.4-1.1L47.4,113.6
		z M122.5,150.2v-2.8c1.7-0.9,6.3-2.6,11.9,0v2.8c0,0.4,0,0.9-0.1,1.5c-4.8-1.7-9-1-11.8,0C122.5,151,122.5,150.4,122.5,150.2z
		 M139.2,141.2c6.2,0.6,21.9,3,29.4,10.2c-3.1,2.9-5.1,7-5.1,11.5c0,8.8,7.3,15.9,16.2,15.9c2.2,0,4.2-0.4,6.1-1.2
		c1.6,3,4,7.7,4.9,11.2c-1.8,0.6-3.6,1.1-5.4,1.5v0c-13.2,1-37.3-28.6-46.1-40.9L139.2,141.2L139.2,141.2z M184.1,173.3
		c0.7-9.9-2.6-17.4-4.9-21.4c0.2,0,0.4-0.1,0.6-0.1c6.3,0,11.4,5,11.4,11.2C191.2,167.6,188.3,171.6,184.1,173.3z M179.2,174
		c-6-0.3-10.8-5.1-10.8-11.1c0-4.2,2.5-7.9,6-9.8C176.4,156.2,180.3,163.8,179.2,174z M209.8,114.8c-0.2-0.3-0.3-0.7-0.2-1.2
		l0.6,0.1C210.1,114.2,209.9,114.5,209.8,114.8z M211.3,110.6c-6-2.4-20.6-3.8-32.7-4.6c3.6-2.3,7.3-5,11-8.1
		c5.3-0.4,17.5-1.6,24.2-4.2C213.9,100.1,212.6,106.2,211.3,110.6z M211.5,82.6c0.3,0.6,0.4,1.3,0.6,1.9c0.1,0.2,0.1,0.4,0.2,0.6h0
		c0.4,1.3,0.7,2.5,0.9,3.8c-2.4,1.3-9.5,2.7-18,3.7c4.3-4.2,8.5-9.1,12.5-14.7c1,0.8,1.9,1.7,2.6,2.7
		C210.9,81.3,211.2,81.9,211.5,82.6z M133.7,93.1c-1.1-0.7-1.8-1.6-2.1-2.4C132.5,91.3,133.2,92.1,133.7,93.1z M128.8,89.9
		c0.4,2.2,1.8,4.8,5.3,6.1c-0.3,2.8-2.7,4.9-5.6,4.9s-5.3-2.2-5.6-4.9c3.5-1.3,4.9-3.9,5.3-6.1c0.1,0,0.2,0,0.2,0
		C128.6,89.8,128.7,89.8,128.8,89.9z M125.5,90.7c-0.4,0.9-1,1.8-2.2,2.5C123.8,92.1,124.6,91.3,125.5,90.7z M33.9,119.1
		c0.1-1.5,0.4-4.3,0.7-5.4c0.3-0.9,1.3-4.1,1.3-7c0-5.8-2.3-11.2-6.5-15.1l-0.1-0.1c-2.8-3-4.6-7.5-4.6-11.6c0-4.9,1.7-9.2,4.7-12.2
		c3-2.9,7.1-4.4,12.2-4.4c46.4,0.3,67.3,28.4,75.8,46.1c-27.7-35.8-56.9-38.8-60-39.1v0l-0.3,0l0,0c0,0,0,0,0,0l-0.5,0v0
		c-5.7,0.2-11,3-14.2,7.6c-1.2,1.7-2,3.5-2.5,5.5c-5.3,17.1,3.6,35.5,4,36.3l0,0c2.9,6.2,9.1,10.2,16.1,10.2c1.5,0,3-0.2,4.5-0.6
		l0,0l0.3-0.1c11.8-1.8,42.4-5.7,52.7-4v0.8c-35.8-2.8-51.3,8.9-51.8,9.4c-3.4,2.3-7.4,3.5-11.6,3.5C43.1,139,33.9,130,33.9,119.1z
		 M59.4,143.3c-4.4,6.1-9.5,15.3-9.9,25.2c-0.2-0.5-0.4-0.9-0.5-1.4l0,0l-0.1-0.2c-0.9-2.2-1.4-4.5-1.4-6.9
		C47.5,151.5,52,145.2,59.4,143.3z M96.6,196.3c-0.6,0.4-1.3,0.8-1.9,1.2c-0.2,0.1-0.4,0.2-0.5,0.3c-2.9,1.4-6,2.1-9.3,2.1
		c-2.3,0-4.6-0.4-6.7-1.1c-0.5-0.3-3-1.5-6.3-3.7c2,0.3,4,0.5,5.9,0.5c11.2,0,21.2-4.6,28.3-9C102.9,190.9,99.7,194.2,96.6,196.3z
		 M128.5,183.5c-1.1-2.1-2.9-7.6-4.6-18.9c0,0,0-0.1,0-0.1l-0.1,0c0,0,0,0,0,0c-0.4-2.5-0.7-5.4-0.9-7.9c1.9-0.9,6-2.2,11,0
		C132.9,165.4,130.6,179.4,128.5,183.5z M138.7,156.7c3.3,4.3,8.3,10.6,14.1,16.8c6.9,7.5,13.2,13,18.7,16.6
		c-3.7-0.7-7.4-2-11.3-3.8c-8.8-4.1-15-9.7-16.3-10.9c-2-3.6-4-7.5-6-11.9C138.3,161,138.5,158.7,138.7,156.7z M162.9,197.8
		c-0.2-0.1-0.4-0.2-0.5-0.3c-0.7-0.4-1.3-0.8-2-1.2c-3.1-2.1-6.3-5.4-9.5-9.8c7.1,4.4,17.2,9,28.3,9c1.9,0,3.9-0.2,5.9-0.5
		c-3.3,2.2-5.8,3.5-6.3,3.7c-2.1,0.7-4.4,1.1-6.7,1.1C168.9,199.9,165.8,199.2,162.9,197.8z M209.6,159.9c0,2.4-0.5,4.7-1.5,7.1l0,0
		c-0.1,0.5-0.3,0.9-0.5,1.4c-0.5-9.9-5.6-19.1-9.9-25.2C205,145.2,209.6,151.5,209.6,159.9z M222.4,113.7c0.4,1.1,0.6,3.9,0.7,5.3
		c0,11-9.2,20-20.4,20c-4.2,0-8.2-1.2-11.4-3.4c-0.7-0.5-16.1-12.2-52-9.5v-0.8c10.3-1.8,40.9,2.2,52.8,4l0.3,0.1l0,0
		c1.5,0.4,3,0.6,4.5,0.6c7,0,13.2-4,16.1-10.2l0,0c0.4-0.8,9.3-19.2,4-36.3c-0.5-1.9-1.3-3.8-2.5-5.5c-3.2-4.6-8.5-7.5-14.2-7.6v0
		l-0.5,0c0,0,0,0,0,0l0,0l-0.3,0v0c-3.1,0.2-32.3,3.2-60,39.1c8.6-17.8,29.4-45.9,75.8-46.1c5,0.1,9.2,1.5,12.2,4.4
		c3,3,4.7,7.3,4.7,12.2c0,4.1-1.8,8.6-4.6,11.7c-4.2,4-6.5,9.4-6.5,15.2C221.1,109.6,222.1,112.8,222.4,113.7z M220.3,124.3
		c-4.7,11.8-15.7,11.9-15.8,11.9c-0.7,0-1.2-0.5-1.2-1.2s0.5-1.2,1.2-1.2c0.4,0,9.5-0.2,13.5-10.4c0.2-0.6,0.9-0.9,1.6-0.7
		C220.2,123,220.5,123.7,220.3,124.3z M228.3,81.7c0-2.6-2.2-4.8-4.9-4.8c-2.7,0-4.9,2.2-4.9,4.8c0,2.6,2.2,4.8,4.9,4.8
		C226.1,86.5,228.3,84.3,228.3,81.7z M224.6,81.7c0,0.2,0,0.4-0.1,0.5c-0.4-0.5-0.8-1.1-1.2-1.8c0,0,0,0,0,0
		C224.1,80.4,224.6,81,224.6,81.7z M222.1,81.7c0-0.2,0.1-0.5,0.2-0.7c0.4,0.7,0.8,1.4,1.2,1.9c-0.1,0-0.1,0-0.2,0
		C222.7,82.9,222.1,82.4,222.1,81.7z M223.9,70.4c0-3.3-2.7-6-6.1-6c-3.4,0-6.1,2.7-6.1,6c0,3.3,2.7,6,6.1,6
		C221.1,76.4,223.9,73.7,223.9,70.4z M217.3,68.1c-0.4,1.3-1,2.7-1.5,3.7c-0.3-0.4-0.5-0.9-0.5-1.4
		C215.3,69.3,216.2,68.3,217.3,68.1z M218,72.8c0.6-1.1,1.2-2.5,1.6-4c0.4,0.4,0.6,1,0.6,1.6C220.3,71.7,219.2,72.7,218,72.8z
		 M193.7,68.1c0.1,0.6-0.3,1.3-0.9,1.4c-15.9,3.1-30.1,15.8-30.3,16c-0.2,0.2-0.5,0.3-0.8,0.3c-0.3,0-0.6-0.1-0.9-0.4
		c-0.4-0.5-0.4-1.2,0.1-1.7c0.6-0.5,14.9-13.3,31.4-16.5C192.9,67,193.5,67.5,193.7,68.1z M197.4,67.4c0,0.7-0.6,1.2-1.2,1.2
		c-0.7,0-1.2-0.5-1.2-1.2s0.6-1.2,1.2-1.2C196.8,66.2,197.4,66.7,197.4,67.4z M220.3,118.7c0.7,0,1.4,0.6,1.4,1.3
		c0,0.7-0.6,1.3-1.4,1.3s-1.4-0.6-1.4-1.3C218.9,119.3,219.5,118.7,220.3,118.7z M53.7,135c0,0.7-0.5,1.2-1.2,1.2
		c-0.1,0-11.1-0.1-15.8-11.9c-0.2-0.6,0.1-1.3,0.7-1.5c0.6-0.2,1.3,0.1,1.6,0.7c4.1,10.2,13.1,10.4,13.5,10.4
		C53.2,133.9,53.7,134.4,53.7,135z M38.5,81.7c0-2.6-2.2-4.8-4.9-4.8c-2.7,0-4.9,2.2-4.9,4.8c0,2.6,2.2,4.8,4.9,4.8
		C36.4,86.5,38.5,84.3,38.5,81.7z M33.7,80.4C33.7,80.4,33.7,80.4,33.7,80.4c-0.3,0.7-0.8,1.3-1.2,1.8c-0.1-0.2-0.1-0.3-0.1-0.5
		C32.4,81,32.9,80.4,33.7,80.4z M33.7,82.9c-0.1,0-0.1,0-0.2,0c0.4-0.5,0.8-1.1,1.2-1.9c0.1,0.2,0.2,0.4,0.2,0.7
		C34.9,82.4,34.4,82.9,33.7,82.9z M39.2,76.4c3.4,0,6.1-2.7,6.1-6c0-3.3-2.7-6-6.1-6c-3.4,0-6.1,2.7-6.1,6
		C33.1,73.7,35.9,76.4,39.2,76.4z M41.7,70.4c0,0.5-0.2,1-0.5,1.4c-0.5-1.1-1.2-2.4-1.6-3.7C40.8,68.3,41.7,69.3,41.7,70.4z
		 M37.4,68.9c0.4,1.4,1.1,2.9,1.6,4c-1.3-0.1-2.3-1.1-2.3-2.4C36.8,69.8,37,69.3,37.4,68.9z M63.4,68.1c0.1-0.6,0.8-1.1,1.4-0.9
		c16.6,3.3,30.8,16,31.4,16.5c0.5,0.4,0.5,1.2,0.1,1.7c-0.2,0.3-0.6,0.4-0.9,0.4c-0.3,0-0.6-0.1-0.8-0.3c-0.1-0.1-14.4-12.8-30.3-16
		C63.6,69.4,63.2,68.7,63.4,68.1z M59.6,67.4c0-0.7,0.6-1.2,1.2-1.2c0.7,0,1.2,0.5,1.2,1.2s-0.6,1.2-1.2,1.2S59.6,68.1,59.6,67.4z
		 M36.7,121.4c-0.7,0-1.4-0.6-1.4-1.3c0-0.7,0.6-1.3,1.4-1.3c0.7,0,1.4,0.6,1.4,1.3C38.1,120.8,37.5,121.4,36.7,121.4z"/>
</g>
</svg>
